simulation
nRows=24
nColumns=15
endheader
time  TH_x TH_y TH_z SC_y  SC_z  SC_x  AC_y  AC_z  AC_x  GH_y  GH_z  GH_yy  EL_x  PS_y
0.000000  0.000000  0.000000  0.000000  3.057132  -7.966145  -20.738116  48.091670  9.117911  -4.272828  38.725248  11.220258  -26.287873  29.300104  91.324765
0.000561  0.000000  0.000000  0.000000  3.057132  -7.966145  -16.452402  48.468259  5.918354  -7.149301  38.725248  11.220258  -26.287873  29.300104  91.324765
0.001121  0.000000  0.000000  0.000000  3.057132  -7.966145  -12.166687  48.682123  2.704160  -9.992563  38.725248  11.220258  -26.287873  29.300104  91.324765
0.001682  0.000000  0.000000  0.000000  3.057132  -7.966145  -7.880973  48.736143  -0.516648  -12.820771  38.725248  11.220258  -26.287873  29.300104  91.324765
0.002242  0.000000  0.000000  0.000000  3.057132  -7.966145  -3.595259  48.631032  -3.736197  -15.651849  38.725248  11.220258  -26.287873  29.300104  91.324765
0.002803  0.000000  0.000000  0.000000  3.057132  -7.966145  0.690456  48.365391  -6.946584  -18.503766  38.725248  11.220258  -26.287873  29.300104  91.324765
0.003363  0.000000  0.000000  0.000000  3.057132  -7.966145  4.976170  47.935660  -10.139698  -21.394805  38.725248  11.220258  -26.287873  29.300104  91.324765
0.003924  0.000000  0.000000  0.000000  3.057132  -7.966145  9.261884  47.336096  -13.307030  -24.343853  38.725248  11.220258  -26.287873  29.300104  91.324765
0.004484  0.000000  0.000000  0.000000  3.057132  -7.966145  13.547598  46.558714  -16.439476  -27.370647  38.725248  11.220258  -26.287873  29.300104  91.324765
0.005045  0.000000  0.000000  0.000000  3.057132  -7.966145  17.833313  45.593216  -19.527106  -30.496016  38.725248  11.220258  -26.287873  29.300104  91.324765
0.005605  0.000000  0.000000  0.000000  3.057132  -7.966145  22.119027  44.426966  -22.558958  -33.742127  38.725248  11.220258  -26.287873  29.300104  91.324765
0.006166  0.000000  0.000000  0.000000  3.057132  -7.966145  26.404741  43.044959  -25.522763  -37.132528  38.725248  11.220258  -26.287873  29.300104  91.324765
0.006726  0.000000  0.000000  0.000000  3.057132  -7.966145  30.690456  41.429961  -28.404663  -40.692257  38.725248  11.220258  -26.287873  29.300104  91.324765
0.007287  0.000000  0.000000  0.000000  3.057132  -7.966145  34.976170  39.562760  -31.188919  -44.447636  38.725248  11.220258  -26.287873  29.300104  91.324765
0.007848  0.000000  0.000000  0.000000  3.057132  -7.966145  39.261884  37.422759  -33.857649  -48.425769  38.725248  11.220258  -26.287873  29.300104  91.324765
0.008408  0.000000  0.000000  0.000000  -3.724461  -11.655747  -20.738116  62.389263  26.372925  -2.656897  28.711850  9.983710  -16.401282  14.035268  79.214267
0.008969  0.000000  0.000000  0.000000  -3.724461  -11.655747  -16.452402  63.279997  22.559467  -4.806234  28.711850  9.983710  -16.401282  14.035268  79.214267
0.009529  0.000000  0.000000  0.000000  -3.724461  -11.655747  -12.166687  63.997120  18.718994  -6.839378  28.711850  9.983710  -16.401282  14.035268  79.214267
0.010090  0.000000  0.000000  0.000000  -3.724461  -11.655747  -7.880973  64.558547  14.857569  -8.781859  28.711850  9.983710  -16.401282  14.035268  79.214267
0.010650  0.000000  0.000000  0.000000  -3.724461  -11.655747  -3.595259  64.977806  10.980399  -10.655878  28.711850  9.983710  -16.401282  14.035268  79.214267
0.011211  0.000000  0.000000  0.000000  -3.724461  -11.655747  0.690456  65.264672  7.092066  -12.481181  28.711850  9.983710  -16.401282  14.035268  79.214267
0.011771  0.000000  0.000000  0.000000  -3.724461  -11.655747  4.976170  65.425698  3.196725  -14.275854  28.711850  9.983710  -16.401282  14.035268  79.214267
0.012332  0.000000  0.000000  0.000000  -3.724461  -11.655747  9.261884  65.464503  -0.701721  -16.056926  28.711850  9.983710  -16.401282  14.035268  79.214267
0.012892  0.000000  0.000000  0.000000  -3.724461  -11.655747  13.547598  65.381943  -4.599479  -17.840972  28.711850  9.983710  -16.401282  14.035268  79.214267
